<svg xmlns="http://www.w3.org/2000/svg" viewBox="0 0 170 24"><path d="M16.47 3.52C17.4 2.41 18.03 0.87 17.86 0c-1.5.06-3.31 1-4.38 2.25-.96 1.11-1.8 2.88-1.57 4.58 1.67.13 3.38-.85 4.56-3.31zM17.82 8.57c-2.66-.16-4.92 1.51-6.19 1.51s-3.22-1.43-5.3-1.39c-2.73.04-5.24 1.59-6.64 4.03-2.83 4.91-.73 12.18 2.03 16.16 1.35 1.95 2.96 4.14 5.08 4.06 2.03-.08 2.8-1.31 5.26-1.31s3.15 1.31 5.3 1.27c2.19-.04 3.59-1.99 4.94-3.95 1.55-2.25 2.19-4.43 2.23-4.55-.04-.04-4.27-1.63-4.31-6.48-.04-4.06 3.31-6.01 3.47-6.09-1.91-2.8-4.86-3.11-5.87-3.26z" fill="#666F7C" transform="scale(0.7) translate(0,2)"/><text x="24" y="18" font-family="system-ui,-apple-system,sans-serif" font-size="18" font-weight="600" fill="#666F7C">Apple</text></svg>